<?xml version="1.0" encoding="UTF-8"?>
<svg width="13px" height="13px" viewBox="0 0 13 13" version="1.1" xmlns="http://www.w3.org/2000/svg" xmlns:xlink="http://www.w3.org/1999/xlink">
    <!-- Generator: Sketch 45 (43475) - http://www.bohemiancoding.com/sketch -->
    <title>js</title>
    <desc>Created with Sketch.</desc>
    <defs>
        <path d="M8.69524752,10.1127455 C8.95598167,10.5384674 9.29520316,10.8513895 9.89515881,10.8513895 C10.3991626,10.8513895 10.7211251,10.5994903 10.7211251,10.2514338 C10.7211251,9.83434138 10.3903277,9.68661258 9.83557417,9.44395929 L9.53148706,9.31348948 C8.65374374,8.93954453 8.07063617,8.47108601 8.07063617,7.48074828 C8.07063617,6.56848696 8.76572176,5.87401776 9.85201131,5.87401776 C10.6253788,5.87401776 11.1813651,6.14317594 11.5820204,6.84791835 L10.6348301,7.45609256 C10.4262839,7.08214761 10.2013006,6.93482973 9.85201131,6.93482973 C9.49573628,6.93482973 9.26993106,7.16084042 9.26993106,7.45609256 C9.26993106,7.82099709 9.49594175,7.9687259 10.017821,8.19473658 L10.3219081,8.32500092 C11.3553933,8.76818733 11.9389118,9.22000324 11.9389118,10.2358186 C11.9389118,11.3309431 11.0786329,11.9308987 9.92330741,11.9308987 C8.7936649,11.9308987 8.06385585,11.3925823 7.70675896,10.6870181 L8.69524752,10.1127455 Z M4.39837343,10.2181486 C4.5894552,10.5571647 4.76327796,10.8437873 5.18119227,10.8437873 C5.58082026,10.8437873 5.8329249,10.687429 5.8329249,10.0794602 L5.8329249,5.94346468 L7.04927333,5.94346468 L7.04927333,10.0958974 C7.04927333,11.3553933 6.31083477,11.9286386 5.23296926,11.9286386 C4.25906866,11.9286386 3.69506927,11.4246348 3.40824116,10.8175906 L4.39837343,10.2181486 Z" id="path-1"></path>
    </defs>
    <g id="-" stroke="none" stroke-width="1" fill="none" fill-rule="evenodd">
        <g id="About" transform="translate(-386.000000, -24.000000)">
            <g id="js" transform="translate(386.000000, 24.000000)">
                <rect id="Rectangle-path" fill="#000000" fill-rule="nonzero" x="0" y="0" width="12.9442484" height="12.9442484"></rect>
                <mask id="mask-2" fill="white">
                    <use xlink:href="#path-1"></use>
                </mask>
                <use id="Shape" fill="#FFFFFF" fill-rule="nonzero" xlink:href="#path-1"></use>
            </g>
        </g>
    </g>
</svg>