
<svg width="15px" height="13px" viewBox="0 0 15 13" version="1.1" xmlns="http://www.w3.org/2000/svg" xmlns:xlink="http://www.w3.org/1999/xlink">
    <g id="Page-1" stroke="none" stroke-width="1" fill="none" fill-rule="evenodd">
        <g id="Swift_logo" fill="#000000">
            <path d="M11.3143421,12.1005598 C9.54743444,13.0877359 7.11798378,13.1891631 4.67376787,12.1759894 C2.6947329,11.3616424 1.05264838,9.93616891 0,8.30747485 C0.505274249,8.71464836 1.09474825,9.04053364 1.72632213,9.32540864 C4.25049752,10.4696687 6.77414288,10.3913098 8.55013681,9.32833794 C8.54900102,9.32723945 8.54824383,9.32650713 8.54748664,9.32540864 C6.02111539,7.45211753 3.87371876,5.00871027 2.27377198,3.0134868 C1.93678366,2.68767476 1.68414654,2.28042801 1.43150941,1.91393523 C3.36836879,3.62428369 6.44222774,5.7824498 7.53674884,6.39357624 C5.22125558,4.03145721 3.15790727,1.09958819 3.24195558,1.18087643 C6.90525068,4.76451601 10.3160222,6.80074975 10.3160222,6.80074975 C10.4288438,6.86226518 10.5159209,6.91352803 10.5859612,6.95929843 C10.6597874,6.77768147 10.7245273,6.5891074 10.7790452,6.39357624 C11.3685192,4.31669837 10.6949968,1.95457935 9.22112253,0 C12.6315155,1.99540655 14.6528396,5.74180568 13.8104635,8.87762762 C13.7885049,8.96221133 13.7646534,9.04569654 13.7389088,9.12771711 C13.7487523,9.13906817 13.7585958,9.15078539 13.7684393,9.16286878 C15.4524344,11.1991025 14.9894115,13.3572686 14.7789121,12.9500951 C13.8653599,11.2210723 12.1741715,11.749812 11.3143799,12.1005964 L11.3143421,12.1005598 Z" id="Path"></path>
        </g>
    </g>
</svg>
